<?xml version="1.0" encoding="UTF-8"?>
<svg id="Layer_1" data-name="Layer 1" xmlns="http://www.w3.org/2000/svg" xmlns:xlink="http://www.w3.org/1999/xlink" viewBox="0 0 213.81 213.81">
  <defs>
    <style>
      .cls-1 {
        fill: url(#linear-gradient);
      }
    </style>
    <linearGradient id="linear-gradient" x1="20.8" y1="8.2" x2="204.28" y2="218.54" gradientUnits="userSpaceOnUse">
      <stop offset="0" stop-color="#2fc5ff"/>
      <stop offset=".98" stop-color="#2477ff"/>
    </linearGradient>
  </defs>
  <path class="cls-1" d="M0,106.91v22.57l44.38,15.78v-22.57L0,106.91ZM57.4,144.94h23.01l26.5-76.07h-23.01l-26.5,76.07ZM0,30.21v22.57l44.38,15.78v-22.57L0,30.21ZM44.38,68.56L0,84.33v22.57l44.38-15.78v-22.57ZM106.91,68.87l26.5,76.07h23.01l-26.5-76.07h-23.01ZM184.01,0h-22.57l-15.78,44.38h22.57L184.01,0ZM68.96,44.38L53.19,0h-22.57l15.78,44.38h22.57ZM145.66,44.38L129.89,0h-22.57l15.78,44.38h22.57ZM107.31,0h-22.57l-15.78,44.38h22.57L107.31,0ZM44.38,145.26L0,161.03v22.57l44.38-15.78v-22.57ZM169.43,145.26l44.38-15.78v-22.57l-44.38,15.78v22.57ZM213.81,30.21l-44.38,15.78v22.57l44.38-15.78v-22.57ZM213.81,183.61v-22.57l-44.38-15.78v22.57l44.38,15.78ZM213.81,106.91v-22.57l-44.38-15.78v22.57l44.38,15.78ZM30.61,213.81h22.57l15.78-44.38h-22.57l-15.78,44.38ZM68.96,169.43l15.78,44.38h22.57l-15.78-44.38h-22.57ZM145.66,169.43l15.78,44.38h22.57l-15.78-44.38h-22.57ZM107.31,213.81h22.57l15.78-44.38h-22.57l-15.78,44.38Z"/>
</svg>
